<svg viewBox="0 0 60 60" xmlns="http://www.w3.org/2000/svg" xmlns:xlink="http://www.w3.org/1999/xlink"><style>:root&gt;svg{display:none}:root&gt;svg:target{display:block}</style><svg id="Icon2" viewBox="0 0 60 60" xmlns="http://www.w3.org/2000/svg"><path id="aIcon_bg" d="M0 0h60v60H0z" fill="#34c3ff"/><path id="aIcon-2" data-name="Icon" d="M857 1010.44l-1.451-.11-.121 1.69a12.253 12.253 0 00-9.07-4.02 12.5 12.5 0 000 25 12.3 12.3 0 0010.265-5.55l-1.207-.82a10.863 10.863 0 01-9.058 4.9 11.031 11.031 0 010-22.06 10.806 10.806 0 018.057 3.61l-1.851-.14-.106 1.47 4.234.31zm-18.933 10.34a2.429 2.429 0 00.947.24c.356 0 .608-.11.608-.37a.539.539 0 00-.624-.41h-.46v-.73h.443a.477.477 0 00.554-.31c0-.17-.176-.29-.51-.29a2.022 2.022 0 00-.86.23l-.219-.74a2.666 2.666 0 011.309-.3 1.116 1.116 0 011.332.93.866.866 0 01-.7.84v.01a.87.87 0 01.816.84c0 .7-.657 1.11-1.611 1.11a2.514 2.514 0 01-1.243-.28zm4.617 1.05a1.538 1.538 0 11.006 0h-.006zm.011-.75c.28 0 .466-.35.466-1.11s-.186-1.11-.471-1.11-.471.34-.471 1.11.186 1.11.471 1.11zm3.183-3a9.807 9.807 0 011.3-.08 2.885 2.885 0 011.66.38 1.569 1.569 0 01.734 1.41 1.788 1.788 0 01-.679 1.52 3.173 3.173 0 01-1.917.5 7.786 7.786 0 01-1.1-.06v-3.67zm1.035 2.92a1.826 1.826 0 00.241.01 1.124 1.124 0 001.31-1.16 1.03 1.03 0 00-1.189-1.06 1.909 1.909 0 00-.362.03v2.18zm5.725.09a3.849 3.849 0 00.044.68h-.932l-.055-.23h-.021a1.012 1.012 0 01-.789.29.875.875 0 01-.943-.85c0-.74.647-1.07 1.666-1.07v-.02c0-.1-.066-.22-.471-.22a1.861 1.861 0 00-.817.21l-.18-.65a2.564 2.564 0 011.177-.26 1.134 1.134 0 011.321 1.21v.91zm-1-.55c-.455 0-.674.11-.674.34a.247.247 0 00.3.24.4.4 0 00.367-.28.689.689 0 00.011-.15v-.15zm2.443-1.5l.356 1.18c.044.16.1.38.137.51h.026c.038-.14.082-.36.115-.51l.268-1.18h1.129l-.57 1.56a4.369 4.369 0 01-1.09 2.02 1.683 1.683 0 01-.97.38l-.192-.88a1.2 1.2 0 00.335-.07.955.955 0 00.35-.25.223.223 0 00.055-.13.406.406 0 00-.044-.16l-1.057-2.47h1.156z" transform="translate(-815 -990)" fill="#fff" fill-rule="evenodd"/></svg><svg id="Icon3" viewBox="0 0 60 60" xmlns="http://www.w3.org/2000/svg"><path id="bIcon_bg" d="M0 0h60v60H0z" fill="#fe3e57"/><path id="bIcon-2" data-name="Icon" d="M1257.38 1019.68a2.391 2.391 0 00-1.45-.6 2.114 2.114 0 00-1.6.6l-2.89 2.79a1.309 1.309 0 00-.19-.27 1.885 1.885 0 00-1.47-.64h-4.04a8.421 8.421 0 01-2.21-.29 5.543 5.543 0 00-5.08 1.05 6.581 6.581 0 00-1.32 1.39l-.73-.69a.506.506 0 00-.36-.14.514.514 0 00-.37.15l-3.52 3.57a.508.508 0 00-.15.36.52.52 0 00.16.35l5.97 5.55a.518.518 0 00.35.14.53.53 0 00.37-.15l3.49-3.5a.554.554 0 00.15-.36.5.5 0 00-.16-.35l-.3-.29.69-.08a10.862 10.862 0 011.28-.07h6.15a4.75 4.75 0 002.53-.64.01.01 0 00.01-.01 3.055 3.055 0 00.66-.58l4.14-4.76a1.711 1.711 0 00-.11-2.53zm-18.91 12.12l-5.23-4.86 2.81-2.86 5.2 4.93zm18.25-10.24l-4.15 4.77a2.861 2.861 0 01-.45.4 3.755 3.755 0 01-1.97.47h-6.16a12.623 12.623 0 00-1.38.08l-1.54.17-3.2-3.04a6.478 6.478 0 011.22-1.32 4.508 4.508 0 014.16-.86 9.348 9.348 0 002.49.33h4.04a.9.9 0 01.92.97 1.091 1.091 0 01-.23.7.883.883 0 01-.7.28h-3.52a.512.512 0 00-.52.5.506.506 0 00.52.5h3.52a1.9 1.9 0 001.47-.64 2.04 2.04 0 00.49-1.27l3.33-3.22a1.222 1.222 0 011.63.03.742.742 0 01.03 1.15zm0 0l-12.07 3.32a.5.5 0 00-.61-.37.489.489 0 00-.38.6v.02a.513.513 0 00.5.38.375.375 0 00.11-.01.5.5 0 00.39-.6zm0 0l-9.19-6.35h4.98a1.242 1.242 0 00.73-.23 1.2 1.2 0 00.73.23h4.98a1.242 1.242 0 00.73-.23 1.19 1.19 0 00.72.23h4.98a1.221 1.221 0 001.24-1.21v-2.26a2.619 2.619 0 00-1.46-2.35 2.756 2.756 0 00.68-1.83 2.951 2.951 0 00-5.9 0 2.808 2.808 0 00.68 1.83 2.61 2.61 0 00-.94.8 2.73 2.73 0 00-.95-.8 2.808 2.808 0 00.68-1.83 2.951 2.951 0 00-5.9 0 2.756 2.756 0 00.68 1.83 2.643 2.643 0 00-.95.8 1.4 1.4 0 01-.27-2.63 2.951 2.951 0 00-5.9 0 2.808 2.808 0 00.68 1.83 2.637 2.637 0 00-1.46 2.35v2.26a1.227 1.227 0 001.24 1.21zm15.36-9.53a1.88 1.88 0 11-1.92 1.88 1.9 1.9 0 011.92-1.88zm-1.33 4.45a2.99 2.99 0 001.33.31 2.958 2.958 0 001.33-.31 1.624 1.624 0 011.38 1.61v2.26a.214.214 0 01-.22.21h-4.98a.205.205 0 01-.21-.21v-2.26a1.625 1.625 0 011.37-1.61zm-5.1-4.45a1.881 1.881 0 11-1.93 1.88 1.9 1.9 0 011.93-1.88zm-1.33 4.45a2.958 2.958 0 001.33.31 2.99 2.99 0 001.33-.31 1.625 1.625 0 011.37 1.61v2.26a.205.205 0 01-.21.21h-4.98a.214.214 0 01-.22-.21v-2.26a1.624 1.624 0 011.38-1.61zm-5.11-4.45a1.881 1.881 0 11-1.93 1.88 1.908 1.908 0 011.93-1.88zm-2.71 6.06a1.633 1.633 0 011.38-1.61 3.008 3.008 0 002.66 0 1.633 1.633 0 011.38 1.61v2.26a.214.214 0 01-.22.21h-4.98a.214.214 0 01-.22-.21v-2.26zm0 0" transform="translate(-1215 -990)" fill="#fff" fill-rule="evenodd"/></svg><svg id="icon1" viewBox="0 0 60 60" xmlns="http://www.w3.org/2000/svg"><path id="cIcon_bg" d="M0 0h60v60H0z" fill="#ffb534"/><path id="cicon-2" data-name="icon" d="M462.2 1018.6l-1.036-4.1a.614.614 0 00.5-.6v-.66a2.621 2.621 0 00-2.631-2.6h-4.723v-1.36a1.286 1.286 0 00-1.3-1.28h-24.046a1.286 1.286 0 00-1.3 1.28v11.22a.627.627 0 001.253 0v-11.22a.037.037 0 01.042-.04h24.051a.037.037 0 01.042.04v11.22a.627.627 0 001.253 0v-.7h7.395a2.047 2.047 0 011.946 1.4H461.7a.624.624 0 00-.626.62v1.32a1.953 1.953 0 001.962 1.94h.71v2.72h-1.637a3.982 3.982 0 00-7.5 0h-.3v-4.66a.627.627 0 00-1.253 0v4.66h-13a3.981 3.981 0 00-7.5 0h-3.6a.043.043 0 01-.042-.04v-1.36h2.714a.62.62 0 100-1.24h-6.013a.62.62 0 100 1.24h2.046v1.36a1.286 1.286 0 001.3 1.28h3.383v.04a3.967 3.967 0 007.934 0v-.04h14.116v.04a3.967 3.967 0 007.934 0v-.04h2.048a.624.624 0 00.626-.62v-6.6a3.276 3.276 0 00-2.802-3.22zm-7.889-4.08h5.565l1.023 4.04h-6.589v-4.04zm4.718-2.64a1.37 1.37 0 011.378 1.36v.04h-6.1v-1.4h4.718zm-22.715 19.88a2.68 2.68 0 112.714-2.68 2.7 2.7 0 01-2.715 2.68zm22.047 0a2.68 2.68 0 112.714-2.68 2.7 2.7 0 01-2.715 2.68zm4.676-7.92a.7.7 0 01-.709-.7v-.7h1.419v1.4h-.71zm-26.723 3.96a1.28 1.28 0 101.294 1.28 1.293 1.293 0 00-1.295-1.28zm22.047 0a1.28 1.28 0 101.294 1.28 1.293 1.293 0 00-1.295-1.28zm-17.329-2.02a.625.625 0 00.626.62h9.354a.62.62 0 100-1.24h-9.354a.625.625 0 00-.627.62zm-14.072-2.02h8.018a.62.62 0 100-1.24h-8.018a.62.62 0 10-.001 1.24zm18.932-9.64l-5.57 5.5-2.9-2.86a.635.635 0 00-.886 0 .619.619 0 000 .88l3.34 3.3a.635.635 0 00.886 0l6.013-5.94a.619.619 0 000-.88.635.635 0 00-.884 0z" transform="translate(-415 -990)" fill="#fff" fill-rule="evenodd"/></svg></svg>