<svg viewBox="0 0 10 8" xmlns="http://www.w3.org/2000/svg" xmlns:xlink="http://www.w3.org/1999/xlink"><style>:root&gt;svg{display:none}:root&gt;svg:target{display:block}</style><svg viewBox="0 0 10 8" id="arrow" xmlns="http://www.w3.org/2000/svg"><path id="aarrow" class="acls-1" d="M910.836 6130.62l-3.609-3.47a.574.574 0 00-.774 0l-.327.32a.511.511 0 00-.16.37.534.534 0 00.16.38l2.105 2.03h-6.689a.518.518 0 00-.54.51v.45a.543.543 0 00.54.54h6.713l-2.129 2.04a.508.508 0 000 .74l.327.32a.6.6 0 00.387.15.556.556 0 00.387-.16l3.609-3.47a.507.507 0 00.164-.37.53.53 0 00-.16-.38" transform="translate(-901 -6127)"/></svg></svg>