<svg xmlns="http://www.w3.org/2000/svg" width="9" height="10"><path id="angle_right" d="M966.907 320.768l-4.338-4.66a.279.279 0 00-.428 0l-.466.5a.329.329 0 00-.092.23.325.325 0 00.092.23l3.659 3.932-3.659 3.93a.334.334 0 000 .46l.466.5a.279.279 0 00.428 0l4.338-4.661A.323.323 0 00967 321a.329.329 0 00-.092-.231zm0 0l-3.482.231a.326.326 0 00-.093-.231l-4.332-4.66a.29.29 0 00-.214-.1.287.287 0 00-.214.1l-.466.5a.334.334 0 00-.093.23.331.331 0 00.093.23l3.653 3.932-3.658 3.93a.331.331 0 000 .46l.466.5a.283.283 0 00.214.1.286.286 0 00.214-.1l4.337-4.661a.32.32 0 00.093-.229zm0 0" transform="translate(-958 -316)" fill="#727272" fill-rule="evenodd"/></svg>