<svg viewBox="0 0 23 20" xmlns="http://www.w3.org/2000/svg" xmlns:xlink="http://www.w3.org/1999/xlink"><style>:root&gt;svg{display:none}:root&gt;svg:target{display:block}</style><svg viewBox="0 0 23 20" id="heart-sprite" xmlns="http://www.w3.org/2000/svg"><path fill-rule="evenodd" d="M16.894-.001c-2.424 0-3.959 1.424-4.82 2.619a8.851 8.851 0 00-.573.914 8.522 8.522 0 00-.573-.914c-.86-1.195-2.395-2.619-4.82-2.619-1.724 0-3.298.698-4.433 1.965C.593 3.172-.004 4.791-.004 6.521c0 1.884.748 3.636 2.353 5.513 1.434 1.679 3.498 3.409 5.887 5.413.891.746 1.811 1.518 2.792 2.362l.029.025a.678.678 0 00.888 0l.03-.025c.98-.844 1.901-1.616 2.791-2.362 2.39-2.004 4.453-3.734 5.887-5.413 1.605-1.877 2.353-3.629 2.353-5.513 0-1.73-.596-3.349-1.679-4.557C20.192.696 18.618-.001 16.894-.001zm-3.002 16.438a301.82 301.82 0 00-2.391 2.018c-.833-.712-1.623-1.374-2.39-2.018-4.677-3.921-7.766-6.511-7.766-9.916 0-1.407.476-2.715 1.342-3.681a4.53 4.53 0 013.421-1.515c1.849 0 3.043 1.12 3.72 2.06a7.819 7.819 0 011.032 2.019.674.674 0 00.641.458.673.673 0 00.641-.458 7.819 7.819 0 011.032-2.019c.677-.94 1.872-2.06 3.72-2.06 1.331 0 2.546.538 3.422 1.515.865.966 1.342 2.274 1.342 3.681 0 3.405-3.09 5.995-7.766 9.916z"/></svg></svg>