<svg viewBox="0 0 19 20" xmlns="http://www.w3.org/2000/svg" xmlns:xlink="http://www.w3.org/1999/xlink"><style>:root&gt;svg{display:none}:root&gt;svg:target{display:block}</style><svg viewBox="0 0 19 20" id="search-sprite" xmlns="http://www.w3.org/2000/svg"><path fill-rule="evenodd" d="M18.709 18.219l-4.681-4.95a8.142 8.142 0 001.863-5.194c0-4.453-3.563-8.077-7.944-8.077C3.568-.002.005 3.622.005 8.075c0 4.454 3.563 8.078 7.942 8.078a7.756 7.756 0 004.551-1.463l4.718 4.99a1.022 1.022 0 001.464.03 1.068 1.068 0 00.029-1.491zM7.947 2.106c3.238 0 5.872 2.679 5.872 5.969 0 3.292-2.634 5.971-5.872 5.971-3.236 0-5.869-2.679-5.869-5.971 0-3.29 2.633-5.969 5.869-5.969z"/></svg></svg>